<svg viewBox="0 0 96 20" xmlns="http://www.w3.org/2000/svg" class="css-hnwxmn"><path d="M75.4091 4.24403V7.01903H77.4602V15.8266H80.2352V4.24403H75.4091Z" class="css-0"/><path d="M7.9838 12.8369C7.44131 13.2712 6.76255 13.4995 6.06785 13.4811C5.63488 13.4888 5.20521 13.4045 4.80716 13.234C4.40912 13.0635 4.05173 12.8105 3.75856 12.4918C3.44664 12.165 3.20247 11.7797 3.04012 11.3581C2.87778 10.9365 2.80047 10.4869 2.81265 10.0353C2.7992 9.58501 2.87596 9.13655 3.03841 8.71635C3.20085 8.29614 3.44571 7.91267 3.75856 7.5885C4.05286 7.27171 4.41062 7.02052 4.80852 6.8513C5.20642 6.68207 5.63553 6.59862 6.06785 6.60639C6.76457 6.58562 7.44689 6.80737 7.99828 7.23378C8.3837 7.55323 8.67692 7.96973 8.84767 8.4403H11.8085C11.5733 7.14885 10.8577 5.9944 9.80565 5.20924C8.72971 4.40036 7.41365 3.97555 6.06785 4.00271C5.26947 3.98679 4.47622 4.1337 3.7365 4.43449C2.99678 4.73527 2.3261 5.18362 1.76539 5.75217C1.19245 6.30629 0.740063 6.9727 0.436541 7.70971C0.13302 8.44671 -0.0151 9.23844 0.00145329 10.0353C-0.016438 10.8338 0.131031 11.6274 0.434592 12.3662C0.738154 13.1049 1.19124 13.7729 1.76539 14.3281C2.3276 14.894 2.99876 15.34 3.73829 15.639C4.47781 15.9381 5.27031 16.084 6.06785 16.0679C7.43654 16.1065 8.77709 15.6747 9.86598 14.8445C10.921 14.0124 11.6212 12.8112 11.8254 11.4831H8.90076C8.72434 12.0096 8.40724 12.4777 7.9838 12.8369Z" class="css-0"/><path d="M15.8069 4.24403H13.0319V15.8266H20.8791L21.9602 13.2929H15.8069V4.24403Z" class="css-0"/><path d="M52.3838 8.96635L50.0263 8.43307C49.415 8.29311 49.1101 7.97137 49.1117 7.46785C49.1109 7.30483 49.1487 7.14392 49.2221 6.99836C49.2955 6.8528 49.4024 6.72673 49.534 6.63052C49.8523 6.39561 50.2416 6.27719 50.6368 6.29511C51.0967 6.28955 51.5453 6.43822 51.9109 6.71739C52.293 7.01432 52.5476 7.44581 52.6227 7.92391L55.3712 7.35685C55.1899 6.36185 54.6226 5.47885 53.793 4.90037C52.8738 4.28122 51.7831 3.96715 50.6754 4.00272C49.3321 4.00272 48.247 4.33009 47.4202 4.98483C47.0177 5.29704 46.6955 5.70069 46.4803 6.16231C46.265 6.62392 46.1628 7.1302 46.1823 7.63918C46.1791 9.39748 47.1942 10.5123 49.2276 10.9837L51.602 11.5C51.9057 11.5378 52.1917 11.6637 52.4248 11.862C52.5884 12.0396 52.6752 12.2747 52.6661 12.5159C52.669 12.6859 52.6294 12.8538 52.5511 13.0047C52.4727 13.1555 52.358 13.2844 52.2173 13.3798C51.8517 13.6154 51.421 13.7294 50.9867 13.7056C49.7657 13.7056 49.0192 13.1369 48.7474 11.9995L45.8493 12.569C45.9076 13.0908 46.0817 13.5929 46.3589 14.0388C46.6361 14.4847 47.0094 14.863 47.4516 15.1462C48.4591 15.7867 49.6366 16.108 50.8298 16.0679C52.165 16.0679 53.2791 15.7406 54.1719 15.0858C54.6046 14.7722 54.9526 14.356 55.1847 13.8746C55.4168 13.3931 55.5256 12.8616 55.5015 12.3277C55.5015 10.5598 54.4622 9.43931 52.3838 8.96635Z" class="css-0"/><path d="M56.708 4.24403V7.01903H58.7591V15.8266H61.5341V4.24403H56.708Z" class="css-0"/><path d="M41.5251 8.96635L39.1676 8.43307C38.5563 8.29311 38.2514 7.97137 38.253 7.46785C38.2522 7.30483 38.29 7.14392 38.3634 6.99836C38.4368 6.8528 38.5437 6.72673 38.6753 6.63052C38.9936 6.39561 39.3829 6.27719 39.7781 6.29511C40.238 6.28955 40.6866 6.43822 41.0522 6.71739C41.4343 7.01432 41.6889 7.44581 41.764 7.92391L44.5125 7.35685C44.3312 6.36185 43.7639 5.47885 42.9343 4.90037C42.0152 4.28122 40.9244 3.96715 39.8167 4.00272C38.4734 4.00272 37.3884 4.33009 36.5615 4.98483C36.159 5.29704 35.8368 5.70069 35.6216 6.16231C35.4063 6.62392 35.3041 7.1302 35.3236 7.63918C35.3204 9.39748 36.3355 10.5123 38.3689 10.9837L40.7433 11.5C41.047 11.5378 41.333 11.6637 41.5661 11.862C41.7297 12.0396 41.8165 12.2747 41.8074 12.5159C41.8103 12.6859 41.7707 12.8538 41.6924 13.0047C41.614 13.1555 41.4993 13.2844 41.3586 13.3798C40.993 13.6154 40.5623 13.7294 40.128 13.7056C38.907 13.7056 38.1605 13.1369 37.8887 11.9995L34.9906 12.569C35.0489 13.0908 35.223 13.5929 35.5002 14.0388C35.7775 14.4847 36.1507 14.863 36.5929 15.1462C37.6004 15.7867 38.7779 16.108 39.9711 16.0679C41.3063 16.0679 42.4204 15.7406 43.3132 15.0858C43.7459 14.7722 44.0939 14.356 44.326 13.8746C44.5581 13.3931 44.6669 12.8616 44.6428 12.3277C44.6428 10.5598 43.6036 9.43931 41.5251 8.96635Z" class="css-0"/><path d="M31.8102 15.8266H34.8844L29.9377 4.24403H27.1627L22.2159 15.8266H25.3095L26.0985 13.7756H31.0187L31.8102 15.8266ZM28.5598 7.4582L30.0463 11.2636H27.0903L28.5598 7.4582Z" class="css-0"/><path d="M68.7732 4.00272C67.5801 4.00272 66.4137 4.35653 65.4217 5.0194C64.4296 5.68227 63.6564 6.62444 63.1998 7.72675C62.7432 8.82907 62.6237 10.042 62.8565 11.2122C63.0893 12.3824 63.6638 13.4574 64.5075 14.301C65.3512 15.1447 66.4261 15.7193 67.5963 15.952C68.7665 16.1848 69.9795 16.0653 71.0818 15.6087C72.1841 15.1521 73.1263 14.3789 73.7891 13.3869C74.452 12.3948 74.8058 11.2285 74.8058 10.0353C74.8058 8.43539 74.1702 6.90097 73.0389 5.76963C71.9076 4.6383 70.3732 4.00272 68.7732 4.00272ZM71.1356 12.4918C70.5077 13.115 69.659 13.4647 68.7744 13.4647C67.8898 13.4647 67.0411 13.115 66.4132 12.4918C66.0998 12.1694 65.8544 11.7873 65.6915 11.3683C65.5286 10.9492 65.4515 10.5017 65.4649 10.0522C65.451 9.59911 65.5277 9.14778 65.6906 8.72471C65.8534 8.30165 66.0991 7.91536 66.4132 7.58851C66.7227 7.27734 67.0906 7.0304 67.4958 6.8619C67.901 6.6934 68.3356 6.60666 68.7744 6.60666C69.2133 6.60666 69.6478 6.6934 70.053 6.8619C70.4582 7.0304 70.8261 7.27734 71.1356 7.58851C71.4494 7.91548 71.6947 8.30184 71.8571 8.72492C72.0196 9.148 72.0958 9.59926 72.0815 10.0522C72.0953 10.5015 72.0187 10.949 71.8562 11.3681C71.6937 11.7871 71.4487 12.1693 71.1356 12.4918Z" class="css-0"/><path d="M93.3863 8.75883H89.5857V4.72664H87.052V8.75883H83.2515V11.0705H87.052V15.1027H89.5857V11.0705H93.3863V8.75883Z" class="css-0"/></svg>